<svg width="72" height="72" viewBox="0 0 72 72" fill="none" xmlns="http://www.w3.org/2000/svg">
<g clip-path="url(#clip0_9_956)">
<path d="M70.938 32.8133L70.9381 32.8131C70.0465 32.189 68.8107 32.371 68.1924 33.3426L68.186 33.3527L68.1857 33.3525L63.3857 40.1525L63.3678 40.1779L63.3442 40.1981C62.891 40.5866 62.3046 40.519 61.9348 40.2136C61.7486 40.0598 61.6103 39.8411 61.5704 39.5824C61.53 39.3212 61.5931 39.0402 61.7735 38.7697L61.7764 38.7652L61.7765 38.7653L68.4765 29.1653L68.4767 29.165C69.1008 28.2733 68.9188 27.0375 67.9473 26.4192L67.938 26.4133L67.9381 26.4131C67.0465 25.789 65.8107 25.971 65.1924 26.9426L65.187 26.9511L65.1868 26.951L58.5868 36.451L58.5816 36.4584L58.5815 36.4583C58.3953 36.7066 58.1566 36.846 57.9032 36.881C57.654 36.9154 57.4121 36.8458 57.2178 36.7163C56.8325 36.4595 56.5916 35.9291 56.8579 35.3965L56.8659 35.3805L56.8761 35.3658L64.5761 24.2658L64.5767 24.265C65.2008 23.3733 65.0188 22.1375 64.0473 21.5192L64.038 21.5133L64.0381 21.5131C63.1465 20.889 61.9107 21.071 61.2924 22.0426L61.2865 22.0518L61.2863 22.0517L53.5863 33.0517L53.5737 33.0696L53.5583 33.0851C53.1044 33.539 52.5043 33.4725 52.13 33.147C51.7522 32.8185 51.6003 32.2294 51.9735 31.6697L51.9765 31.6651L51.9766 31.6651L58.4766 22.3651L58.4767 22.365C59.1008 21.4733 58.9188 20.2375 57.9473 19.6192L57.938 19.6133L57.9381 19.6131C57.0465 18.989 55.8107 19.171 55.1924 20.1426L55.1864 20.1519L55.1862 20.1518L44.1862 35.8518L43.8139 36.3832L43.7334 35.7393C43.6853 35.3544 43.6132 35.0409 43.5265 34.694C43.5124 34.6376 43.4979 34.5803 43.483 34.5216C43.4066 34.2196 43.3213 33.8823 43.2364 33.4574C42.6911 30.7311 41.8822 29.3698 41.1054 28.6973C40.3403 28.035 39.5702 28.0101 39.0023 28.0575C38.4988 28.0994 38.116 28.3901 37.8742 28.8187C37.6314 29.2492 37.5377 29.8113 37.6264 30.3572C38.4343 33.5462 38.331 36.9262 38.03 39.6483C37.8791 41.0124 37.678 42.2154 37.5153 43.1497C37.4944 43.2698 37.4741 43.3852 37.4547 43.4958C37.3984 43.8167 37.3492 44.0972 37.3111 44.3345C37.2591 44.6588 37.2315 44.8815 37.2315 45.0083C37.2315 45.1097 37.2317 45.2227 37.2428 45.3335C37.2541 45.447 37.2752 45.5366 37.3051 45.5965L37.3219 45.6302L37.3281 45.6672C37.5217 46.8288 38.0023 47.9707 38.9487 48.8225L39.1114 48.9689L38.9878 49.1495L37.6878 51.0495L37.6863 51.0517C37.0622 51.9433 37.2442 53.1792 38.2157 53.7974L38.2254 53.8036L38.2252 53.8038L45.6249 59.0035L70.938 32.8133ZM70.938 32.8133L70.9473 32.8192M70.938 32.8133L70.9473 32.8192M70.9473 32.8192C71.9109 33.4324 72.1052 34.6632 71.3793 35.6613L71.3769 35.6647L60.0769 51.7647L60.0764 51.7654C57.8361 54.9797 54.0351 56.3475 50.4215 55.7616L50.2658 55.7363L50.1759 55.866L48.3759 58.466L48.3758 58.4659M70.9473 32.8192L48.3758 58.4659M48.3758 58.4659L48.3706 58.4741M48.3758 58.4659L48.3706 58.4741M48.3706 58.4741C47.7524 59.4455 46.5168 59.6276 45.6252 59.0038L48.3706 58.4741ZM34.9325 44.9857L34.9315 44.997V45.0083C34.9315 45.0598 34.9314 45.1058 34.9277 45.1501C34.924 45.1947 34.9174 45.2256 34.9099 45.2456C34.908 45.2505 34.9064 45.2541 34.9052 45.2565C34.9007 45.2574 34.8931 45.2583 34.8815 45.2583H34.65L34.6322 45.4892C34.5378 46.7167 33.9732 47.7595 33.0143 48.6225L32.8516 48.7689L32.9752 48.9495L34.2752 50.8495L34.2767 50.8517C34.8914 51.7299 34.6339 52.9765 33.7381 53.6035L33.7378 53.6038L26.3381 58.8035C26.3381 58.8036 26.338 58.8036 26.3379 58.8037C25.46 59.4181 24.214 59.1608 23.5868 58.2657C23.5866 58.2655 23.5865 58.2652 23.5863 58.265L21.787 55.666L21.6972 55.5363L21.5415 55.5616C17.9279 56.1475 14.1269 54.7797 11.8866 51.5654L11.8861 51.5647L0.586305 35.465C-0.028444 34.5868 0.2291 33.3402 1.12486 32.7131C2.00308 32.0984 3.24966 32.3559 3.87669 33.2517L3.87725 33.2525L8.67725 40.0525L8.69519 40.0779L8.7188 40.0981C9.17197 40.4866 9.75844 40.419 10.1282 40.1136C10.3144 39.9598 10.4527 39.7411 10.4926 39.4824C10.533 39.2212 10.4699 38.9402 10.2895 38.6697L10.2896 38.6696L10.2865 38.6653L3.58651 29.0653L3.5863 29.065C2.97156 28.1868 3.2291 26.9402 4.12486 26.3131C5.00308 25.6984 6.24966 25.9559 6.87669 26.8517L6.87679 26.8518L13.6768 36.5518L13.6767 36.5519L13.6815 36.5583C13.8677 36.8066 14.1064 36.946 14.3598 36.981C14.609 37.0154 14.8509 36.9458 15.0452 36.8163C15.4305 36.5595 15.6714 36.0291 15.4051 35.4965L15.397 35.4803L15.3866 35.4655L7.58665 24.2655L7.5863 24.265C6.97156 23.3868 7.2291 22.1402 8.12486 21.5131C9.00307 20.8984 10.2497 21.1559 10.8767 22.0517L18.5767 33.0517L18.5892 33.0696L18.6047 33.0851C19.0586 33.539 19.6586 33.4725 20.033 33.147C20.4108 32.8185 20.5626 32.2294 20.1895 31.6697L20.1896 31.6696L20.1864 31.6651L13.6864 22.3651L13.6863 22.365C13.0716 21.4868 13.3291 20.2402 14.2249 19.6131C15.1031 18.9984 16.3497 19.2559 16.9767 20.1517L16.9768 20.1518L27.9768 35.8518L28.3491 36.3832L28.4296 35.7393C28.4777 35.3544 28.5498 35.0409 28.6365 34.694C28.6506 34.6376 28.6651 34.5803 28.68 34.5216C28.7564 34.2196 28.8417 33.8823 28.9266 33.4574C29.4719 30.7311 30.2808 29.3698 31.0576 28.6973C31.8227 28.035 32.5928 28.0101 33.1607 28.0575C33.6642 28.0994 34.047 28.3901 34.2887 28.8187C34.5317 29.2493 34.6253 29.8116 34.5365 30.3577C33.7286 33.5971 33.857 37.0025 34.1706 39.7244C34.3278 41.0882 34.5319 42.2848 34.6898 43.2053L34.6959 43.2409C34.7724 43.6869 34.8369 44.0634 34.8799 44.3632C34.9253 44.6795 34.9419 44.882 34.9325 44.9857ZM34.9105 45.2549C34.9106 45.2549 34.9102 45.2551 34.9093 45.2554L34.9105 45.2549Z" fill="#ECECEC" stroke="#1D67DD" stroke-width="0.5"/>
<path d="M33.1996 45.7L32.7996 46.0999L27.0996 50L25.5996 51C24.3996 51.9 22.9996 52.4 21.5996 52.7L23.1996 55C23.6996 54.9 24.0996 54.7999 24.2996 54.5999L33.4996 48.0999C33.7996 47.8999 33.9996 47.6 34.1996 47.2L33.1996 45.7ZM46.2996 51L44.7996 50L39.1996 46.0999C39.0996 45.9999 38.8996 45.9 38.7996 45.7L37.5996 47.4C37.7996 47.8 38.0996 48.0999 38.2996 48.2999L47.4996 54.7999C47.7996 54.9999 48.1996 55.1 48.5996 55.2L50.1996 52.9C48.8996 52.4 47.4996 51.9 46.2996 51Z" fill="white"/>
</g>
<defs>
<clipPath id="clip0_9_956">
<rect width="72" height="72" fill="white"/>
</clipPath>
</defs>
</svg>
