<svg width="124" height="164" viewBox="0 0 124 164" fill="none" xmlns="http://www.w3.org/2000/svg">
<path d="M19.32 0H66.702C76.9607 0 86.4813 2.54623 95.264 7.63868C104.047 12.7311 110.984 19.6687 116.077 28.4513C121.243 37.2339 123.826 46.8284 123.826 57.2347C123.826 67.641 121.243 77.2355 116.077 86.0181C110.984 94.8008 104.047 101.738 95.264 106.831C86.4813 111.849 76.9607 114.359 66.702 114.359H38.5828V144.249C38.5828 149.415 36.7008 153.881 32.9368 157.645C29.1728 161.409 24.6339 163.291 19.32 163.291C14.1538 163.291 9.68865 161.409 5.92466 157.645C2.16068 153.807 0.278687 149.342 0.278687 144.249V19.0413C0.278687 13.9489 2.16068 9.52067 5.92466 5.75668C9.68865 1.91889 14.1538 0 19.32 0ZM66.9234 38.4148H38.5828V76.0546H66.9234C72.0896 76.0546 76.4809 74.2465 80.0973 70.6301C83.7137 66.9399 85.5219 62.4748 85.5219 57.2347C85.5219 51.9947 83.7137 47.5664 80.0973 43.9501C76.4809 40.2599 72.0896 38.4148 66.9234 38.4148Z" fill="#1D67DD"/>
</svg>
