<svg width="164" height="164" viewBox="0 0 164 164" fill="none" xmlns="http://www.w3.org/2000/svg">
<path d="M50.3124 6.53162C60.4235 2.17721 71.0143 0 82.0849 0C93.1554 0 103.746 2.17721 113.857 6.53162C123.968 10.8122 132.64 16.6058 139.873 23.9124C147.18 31.1451 152.973 39.8171 157.254 49.9282C161.608 60.0393 163.786 70.6301 163.786 81.7006C163.786 92.7712 161.608 103.325 157.254 113.362C152.973 123.4 147.18 132.072 139.873 139.378C132.64 146.685 123.968 152.515 113.857 156.87C103.746 161.15 93.1554 163.291 82.0849 163.291C67.2504 163.291 53.5598 159.637 41.0132 152.331C28.5404 145.024 18.6507 135.134 11.3441 122.662C4.11136 110.115 0.49498 96.4613 0.49498 81.7006C0.49498 70.6301 2.63529 60.0393 6.9159 49.9282C11.1965 39.8171 16.9901 31.1451 24.2966 23.9124C31.6032 16.6058 40.2751 10.8122 50.3124 6.53162ZM51.5302 51.1459C43.0428 59.6333 38.7991 69.8182 38.7991 81.7006C38.7991 93.583 43.0428 103.768 51.5302 112.255C60.0176 120.743 70.2025 124.986 82.0849 124.986C93.9673 124.986 104.152 120.743 112.64 112.255C121.201 103.768 125.481 93.583 125.481 81.7006C125.481 69.8182 121.201 59.6333 112.64 51.1459C104.152 42.6585 93.9673 38.4148 82.0849 38.4148C70.2025 38.4148 60.0176 42.6585 51.5302 51.1459Z" fill="#1D67DD"/>
</svg>
