<svg width="132" height="164" viewBox="0 0 132 164" fill="none" xmlns="http://www.w3.org/2000/svg">
<path d="M112.635 0C117.875 0 122.377 1.91889 126.141 5.75668C129.979 9.52067 131.898 13.9489 131.898 19.0413V97.7529C131.898 106.683 130.163 115.207 126.695 123.326C123.226 131.37 118.576 138.345 112.746 144.249C106.915 150.08 99.9409 154.729 91.8225 158.198C83.7779 161.593 75.3274 163.291 66.471 163.291C54.6624 163.291 43.7026 160.375 33.5915 154.545C23.5542 148.714 15.5834 140.78 9.67908 130.743C3.84859 120.632 0.93335 109.635 0.93335 97.7529V19.0413C0.93335 13.9489 2.81534 9.52067 6.57933 5.75668C10.4171 1.91889 14.8822 0 19.9747 0C25.2885 0 29.8275 1.91889 33.5915 5.75668C37.3554 9.52067 39.2374 13.9489 39.2374 19.0413V97.7529C39.2374 105.207 41.8944 111.628 47.2082 117.016C52.5959 122.33 59.0168 124.986 66.471 124.986C73.9251 124.986 80.3092 122.33 85.623 117.016C90.9369 111.628 93.5938 105.207 93.5938 97.7529V19.0413C93.5938 13.9489 95.4758 9.52067 99.2398 5.75668C103.078 1.91889 107.543 0 112.635 0Z" fill="#1D67DD"/>
</svg>
