<svg width="129" height="164" viewBox="0 0 129 164" fill="none" xmlns="http://www.w3.org/2000/svg">
<path d="M100.173 0C105.266 0 109.694 1.91889 113.458 5.75668C117.296 9.52067 119.215 13.9489 119.215 19.0413C119.215 42.2895 109.472 61.4415 89.9883 76.4975C97.5901 81.0733 104.159 86.4978 109.694 92.7712C115.229 98.9707 119.657 106.499 122.979 115.355C126.373 124.212 128.071 133.843 128.071 144.249C128.071 149.342 126.152 153.807 122.314 157.645C118.477 161.409 113.974 163.291 108.808 163.291C103.568 163.291 99.0661 161.409 95.3022 157.645C91.612 153.881 89.7669 149.415 89.7669 144.249C89.7669 131.186 85.228 120.079 76.1501 110.927C67.0723 101.701 56.1124 97.0887 43.2706 97.0887H39.1745V144.249C39.1745 149.415 37.2925 153.881 33.5285 157.645C29.7645 161.409 25.2256 163.291 19.9118 163.291C14.7455 163.291 10.2804 161.409 6.5164 157.645C2.75241 153.807 0.870422 149.342 0.870422 144.249V19.0413C0.870422 13.9489 2.75241 9.52067 6.5164 5.75668C10.2804 1.91889 14.7455 0 19.9118 0C25.2256 0 29.7645 1.91889 33.5285 5.75668C37.2925 9.52067 39.1745 13.9489 39.1745 19.0413V59.6702H40.7244C51.8687 59.6702 61.3525 55.7217 69.1757 47.8248C76.9989 39.854 80.9105 30.2595 80.9105 19.0413C80.9105 13.8751 82.7555 9.40996 86.4457 5.64598C90.2097 1.88199 94.7855 0 100.173 0Z" fill="#1D67DD"/>
</svg>
