<svg width="102" height="164" viewBox="0 0 102 164" fill="none" xmlns="http://www.w3.org/2000/svg">
<path d="M82.697 163.291H19.0413C13.8751 163.291 9.40996 161.409 5.64598 157.645C1.88199 153.807 0 149.342 0 144.249V19.0413C0 13.9489 1.88199 9.52067 5.64598 5.75668C9.40996 1.91889 13.8751 0 19.0413 0C24.3552 0 28.8941 1.91889 32.6581 5.75668C36.4221 9.52067 38.3041 13.9489 38.3041 19.0413V124.986H82.697C87.937 124.986 92.4021 126.905 96.0923 130.743C99.8563 134.507 101.738 139.083 101.738 144.471C101.738 149.563 99.8563 153.991 96.0923 157.755C92.3283 161.445 87.8632 163.291 82.697 163.291Z" fill="#1D67DD"/>
</svg>
