<svg width="24" height="24" viewBox="0 0 24 24" fill="none" xmlns="http://www.w3.org/2000/svg">
<path d="M15.5035 14.4C17.085 14.4 18.6017 15.0321 19.7199 16.1574C20.8382 17.2826 21.4664 18.8087 21.4664 20.4V21.6C21.4664 22.2365 21.2151 22.847 20.7678 23.2971C20.3205 23.7471 19.7138 24 19.0813 24H2.38516C1.75257 24 1.1459 23.7471 0.698596 23.2971C0.251293 22.847 0 22.2365 0 21.6V20.4C0 18.8087 0.628232 17.2826 1.74649 16.1574C2.86475 15.0321 4.38144 14.4 5.96289 14.4H15.5035ZM21.9601 8.4972C22.1743 8.2797 22.4629 8.15276 22.767 8.14238C23.0711 8.132 23.3676 8.23896 23.5959 8.44136C23.8241 8.64376 23.9669 8.9263 23.9949 9.23115C24.023 9.536 23.9341 9.84009 23.7466 10.0812L23.6465 10.1952L20.2738 13.5888C20.0685 13.7954 19.7953 13.9195 19.5054 13.9379C19.2156 13.9562 18.9291 13.8675 18.6996 13.6884L18.5875 13.5888L16.9012 11.892C16.6851 11.6766 16.5589 11.3861 16.5486 11.0801C16.5383 10.7742 16.6446 10.4758 16.8457 10.2461C17.0469 10.0164 17.3277 9.87276 17.6306 9.84456C17.9336 9.81635 18.2358 9.90573 18.4754 10.0944L18.5875 10.1952L19.4307 11.0436L21.9601 8.4972ZM10.7332 0C12.3147 0 13.8314 0.632141 14.9496 1.75736C16.0679 2.88258 16.6961 4.4087 16.6961 6C16.6961 7.5913 16.0679 9.11742 14.9496 10.2426C13.8314 11.3679 12.3147 12 10.7332 12C9.15175 12 7.63507 11.3679 6.51681 10.2426C5.39855 9.11742 4.77032 7.5913 4.77032 6C4.77032 4.4087 5.39855 2.88258 6.51681 1.75736C7.63507 0.632141 9.15175 0 10.7332 0Z" fill="#D0D0D0"/>
</svg>
