<svg width="24" height="24" viewBox="0 0 24 24" fill="none" xmlns="http://www.w3.org/2000/svg">
<path d="M2.39894 10.8C2.70483 10.8003 2.99904 10.9175 3.22147 11.1274C3.4439 11.3374 3.57775 11.6243 3.59568 11.9297C3.6136 12.235 3.51425 12.5357 3.31792 12.7702C3.12159 13.0047 2.8431 13.1555 2.53935 13.1916L2.39894 13.2H1.1988C0.892914 13.1997 0.598698 13.0825 0.37627 12.8726C0.153842 12.6626 0.0199908 12.3757 0.00206427 12.0703C-0.0158623 11.765 0.0834893 11.4643 0.279819 11.2298C0.476149 10.9953 0.754639 10.8445 1.05839 10.8084L1.1988 10.8H2.39894ZM12 0C12.294 3.87727e-05 12.5777 0.107947 12.7973 0.303258C13.017 0.498569 13.1573 0.767699 13.1917 1.0596L13.2001 1.2V2.4C13.1998 2.70586 13.0827 3.00004 12.8727 3.22244C12.6627 3.44485 12.3757 3.57868 12.0703 3.59661C11.765 3.61453 11.4643 3.51519 11.2297 3.31888C10.9951 3.12257 10.8444 2.84412 10.8083 2.5404L10.7999 2.4V1.2C10.7999 0.88174 10.9263 0.576515 11.1514 0.351472C11.3764 0.126428 11.6817 0 12 0ZM22.8012 10.8C23.1071 10.8003 23.4013 10.9175 23.6237 11.1274C23.8462 11.3374 23.98 11.6243 23.9979 11.9297C24.0159 12.235 23.9165 12.5357 23.7202 12.7702C23.5239 13.0047 23.2454 13.1555 22.9416 13.1916L22.8012 13.2H21.6011C21.2952 13.1997 21.001 13.0825 20.7785 12.8726C20.5561 12.6626 20.4223 12.3757 20.4043 12.0703C20.3864 11.765 20.4857 11.4643 20.6821 11.2298C20.8784 10.9953 21.1569 10.8445 21.4606 10.8084L21.6011 10.8H22.8012ZM3.47066 3.4716C3.67731 3.26499 3.95226 3.14087 4.24392 3.12253C4.53559 3.1042 4.82392 3.1929 5.05483 3.372L5.16764 3.4716L6.00774 4.3116C6.22298 4.52755 6.34794 4.81732 6.35725 5.12206C6.36656 5.4268 6.25951 5.72366 6.05784 5.95233C5.85618 6.18101 5.57503 6.32437 5.27149 6.35328C4.96794 6.38219 4.66478 6.29449 4.42356 6.108L4.31075 6.0084L3.47066 5.1684C3.24567 4.94337 3.11927 4.6382 3.11927 4.32C3.11927 4.0018 3.24567 3.69663 3.47066 3.4716ZM18.8324 3.4716C19.0483 3.25638 19.3381 3.13143 19.6429 3.12213C19.9477 3.11282 20.2446 3.21986 20.4733 3.4215C20.702 3.62314 20.8453 3.90426 20.8743 4.20777C20.9032 4.51128 20.8155 4.81441 20.629 5.0556L20.5293 5.1684L19.6893 6.0084C19.4733 6.22362 19.1835 6.34857 18.8787 6.35787C18.5739 6.36718 18.277 6.26014 18.0483 6.0585C17.8196 5.85686 17.6763 5.57574 17.6473 5.27223C17.6184 4.96872 17.7061 4.66559 17.8927 4.4244L17.9923 4.3116L18.8324 3.4716ZM14.4003 19.2C14.7186 19.2 15.0238 19.3264 15.2489 19.5515C15.474 19.7765 15.6004 20.0817 15.6004 20.4C15.6004 21.3548 15.2211 22.2705 14.5459 22.9456C13.8707 23.6207 12.9549 24 12 24C11.0451 24 10.1293 23.6207 9.45413 22.9456C8.77893 22.2705 8.3996 21.3548 8.3996 20.4C8.39964 20.1061 8.50756 19.8224 8.70289 19.6028C8.89823 19.3831 9.16739 19.2428 9.45932 19.2084L9.59973 19.2H14.4003ZM12 4.8C13.5113 4.8 14.9843 5.27547 16.2104 6.15906C17.4364 7.04264 18.3534 8.28955 18.8313 9.72316C19.3092 11.1568 19.3239 12.7044 18.8733 14.1468C18.4226 15.5892 17.5295 16.8533 16.3205 17.76C16.1551 17.8842 15.9603 17.9636 15.7552 17.9904L15.6004 18H8.3996C8.13993 18 7.88726 17.9158 7.67952 17.76C6.47046 16.8533 5.57737 15.5892 5.12674 14.1468C4.67611 12.7044 4.6908 11.1568 5.16872 9.72316C5.64665 8.28955 6.56357 7.04264 7.78962 6.15906C9.01567 5.27547 10.4887 4.8 12 4.8Z" fill="#D0D0D0"/>
</svg>
