<svg width="122" height="28" viewBox="0 0 122 28" fill="none" xmlns="http://www.w3.org/2000/svg">
<g filter="url(#filter0_d_17_2553)">
<path d="M104.719 0H110.522C111.779 0 112.945 0.311864 114.021 0.935593C115.096 1.55932 115.946 2.40904 116.57 3.48475C117.203 4.56045 117.519 5.73559 117.519 7.01017C117.519 8.28475 117.203 9.45989 116.57 10.5356C115.946 11.6113 115.096 12.461 114.021 13.0847C112.945 13.6994 111.779 14.0068 110.522 14.0068H107.078V17.6678C107.078 18.3006 106.848 18.8475 106.387 19.3085C105.926 19.7695 105.37 20 104.719 20C104.086 20 103.539 19.7695 103.078 19.3085C102.617 18.8384 102.387 18.2915 102.387 17.6678V2.3322C102.387 1.70847 102.617 1.1661 103.078 0.705085C103.539 0.235028 104.086 0 104.719 0ZM110.549 4.70508H107.078V9.31525H110.549C111.182 9.31525 111.72 9.09379 112.163 8.65085C112.606 8.19887 112.827 7.65198 112.827 7.01017C112.827 6.36836 112.606 5.82599 112.163 5.38305C111.72 4.93107 111.182 4.70508 110.549 4.70508Z" fill="white"/>
<path d="M97.8984 0C98.5402 0 99.0916 0.235028 99.5526 0.705085C100.023 1.1661 100.258 1.70847 100.258 2.3322V11.9729C100.258 13.0667 100.045 14.1107 99.6204 15.1051C99.1956 16.0904 98.6261 16.9446 97.912 17.6678C97.1978 18.3819 96.3436 18.9514 95.3492 19.3763C94.3639 19.7921 93.3289 20 92.2442 20C90.7978 20 89.4555 19.6429 88.217 18.9288C86.9877 18.2147 86.0114 17.2429 85.2882 16.0136C84.5741 14.7751 84.217 13.4282 84.217 11.9729V2.3322C84.217 1.70847 84.4475 1.1661 84.9086 0.705085C85.3786 0.235028 85.9255 0 86.5492 0C87.2001 0 87.756 0.235028 88.217 0.705085C88.6781 1.1661 88.9086 1.70847 88.9086 2.3322V11.9729C88.9086 12.8859 89.234 13.6723 89.8848 14.3322C90.5447 14.9831 91.3312 15.3085 92.2442 15.3085C93.1572 15.3085 93.9391 14.9831 94.5899 14.3322C95.2408 13.6723 95.5662 12.8859 95.5662 11.9729V2.3322C95.5662 1.70847 95.7967 1.1661 96.2577 0.705085C96.7278 0.235028 97.2747 0 97.8984 0Z" fill="white"/>
<path d="M72.4882 0C73.1119 0 73.6543 0.235028 74.1153 0.705085C74.5853 1.1661 74.8204 1.70847 74.8204 2.3322C74.8204 5.17966 73.6271 7.52542 71.2407 9.36949C72.1718 9.92994 72.9763 10.5944 73.6543 11.3627C74.3322 12.122 74.8746 13.0441 75.2814 14.1288C75.6972 15.2136 75.9051 16.3932 75.9051 17.6678C75.9051 18.2915 75.6701 18.8384 75.2 19.3085C74.73 19.7695 74.1785 20 73.5458 20C72.904 20 72.3526 19.7695 71.8915 19.3085C71.4396 18.8475 71.2136 18.3006 71.2136 17.6678C71.2136 16.0678 70.6576 14.7073 69.5458 13.5864C68.4339 12.4565 67.0915 11.8915 65.5187 11.8915H65.017V17.6678C65.017 18.3006 64.7865 18.8475 64.3254 19.3085C63.8644 19.7695 63.3085 20 62.6576 20C62.0249 20 61.478 19.7695 61.017 19.3085C60.5559 18.8384 60.3254 18.2915 60.3254 17.6678V2.3322C60.3254 1.70847 60.5559 1.1661 61.017 0.705085C61.478 0.235028 62.0249 0 62.6576 0C63.3085 0 63.8644 0.235028 64.3254 0.705085C64.7865 1.1661 65.017 1.70847 65.017 2.3322V7.30848H65.2068C66.5718 7.30848 67.7333 6.82486 68.6915 5.85763C69.6497 4.88136 70.1288 3.70621 70.1288 2.3322C70.1288 1.69944 70.3548 1.15254 70.8068 0.691525C71.2678 0.230509 71.8283 0 72.4882 0Z" fill="white"/>
<path d="M44.6371 0.8C45.8755 0.266667 47.1727 0 48.5286 0C49.8846 0 51.1817 0.266667 52.4201 0.8C53.6586 1.32429 54.7207 2.0339 55.6066 2.92881C56.5015 3.81469 57.2111 4.87684 57.7354 6.11525C58.2687 7.35367 58.5354 8.65085 58.5354 10.0068C58.5354 11.3627 58.2687 12.6554 57.7354 13.8847C57.2111 15.1141 56.5015 16.1763 55.6066 17.0712C54.7207 17.9661 53.6586 18.6802 52.4201 19.2136C51.1817 19.7379 49.8846 20 48.5286 20C46.7117 20 45.0348 19.5525 43.4981 18.6576C41.9704 17.7627 40.7591 16.5514 39.8642 15.0237C38.9783 13.487 38.5354 11.8147 38.5354 10.0068C38.5354 8.65085 38.7975 7.35367 39.3218 6.11525C39.8461 4.87684 40.5557 3.81469 41.4507 2.92881C42.3456 2.0339 43.4077 1.32429 44.6371 0.8ZM44.7862 6.26441C43.7467 7.30396 43.2269 8.55141 43.2269 10.0068C43.2269 11.4621 43.7467 12.7096 44.7862 13.7492C45.8258 14.7887 47.0733 15.3085 48.5286 15.3085C49.984 15.3085 51.2314 14.7887 52.271 13.7492C53.3196 12.7096 53.8439 11.4621 53.8439 10.0068C53.8439 8.55141 53.3196 7.30396 52.271 6.26441C51.2314 5.22486 49.984 4.70508 48.5286 4.70508C47.0733 4.70508 45.8258 5.22486 44.7862 6.26441Z" fill="white"/>
<path d="M23.2677 0.8C24.5061 0.266667 25.8033 0 27.1592 0C28.5152 0 29.8123 0.266667 31.0508 0.8C32.2892 1.32429 33.3513 2.0339 34.2372 2.92881C35.1321 3.81469 35.8417 4.87684 36.366 6.11525C36.8994 7.35367 37.166 8.65085 37.166 10.0068C37.166 11.3627 36.8994 12.6554 36.366 13.8847C35.8417 15.1141 35.1321 16.1763 34.2372 17.0712C33.3513 17.9661 32.2892 18.6802 31.0508 19.2136C29.8123 19.7379 28.5152 20 27.1592 20C25.3423 20 23.6655 19.5525 22.1287 18.6576C20.601 17.7627 19.3897 16.5514 18.4948 15.0237C17.609 13.487 17.166 11.8147 17.166 10.0068C17.166 8.65085 17.4282 7.35367 17.9525 6.11525C18.4768 4.87684 19.1864 3.81469 20.0813 2.92881C20.9762 2.0339 22.0383 1.32429 23.2677 0.8ZM23.4169 6.26441C22.3773 7.30396 21.8575 8.55141 21.8575 10.0068C21.8575 11.4621 22.3773 12.7096 23.4169 13.7492C24.4564 14.7887 25.7039 15.3085 27.1592 15.3085C28.6146 15.3085 29.8621 14.7887 30.9016 13.7492C31.9502 12.7096 32.4745 11.4621 32.4745 10.0068C32.4745 8.55141 31.9502 7.30396 30.9016 6.26441C29.8621 5.22486 28.6146 4.70508 27.1592 4.70508C25.7039 4.70508 24.4564 5.22486 23.4169 6.26441Z" fill="white"/>
<path d="M14.1288 20H6.3322C5.69944 20 5.15254 19.7695 4.69153 19.3085C4.23051 18.8384 4 18.2915 4 17.6678V2.3322C4 1.70847 4.23051 1.1661 4.69153 0.705085C5.15254 0.235028 5.69944 0 6.3322 0C6.98305 0 7.53898 0.235028 8 0.705085C8.46102 1.1661 8.69153 1.70847 8.69153 2.3322V15.3085H14.1288C14.7706 15.3085 15.3175 15.5435 15.7695 16.0136C16.2305 16.4746 16.461 17.035 16.461 17.6949C16.461 18.3186 16.2305 18.861 15.7695 19.322C15.3085 19.774 14.7616 20 14.1288 20Z" fill="white"/>
<path d="M29.8543 9.64429C29.8543 11.3442 28.4762 12.7222 26.7764 12.7222C25.0765 12.7222 23.6985 11.3442 23.6985 9.64429C23.6985 7.94442 25.0765 6.56641 26.7764 6.56641C28.4762 6.56641 29.8543 7.94442 29.8543 9.64429Z" fill="white"/>
<path d="M51.6045 9.64429C51.6045 11.3442 50.2265 12.7222 48.5266 12.7222C46.8267 12.7222 45.4487 11.3442 45.4487 9.64429C45.4487 7.94442 46.8267 6.56641 48.5266 6.56641C50.2265 6.56641 51.6045 7.94442 51.6045 9.64429Z" fill="white"/>
<path d="M28.9352 9.86652C28.9352 10.9382 28.0664 11.807 26.9947 11.807C25.923 11.807 25.0542 10.9382 25.0542 9.86652C25.0542 8.79481 25.923 7.92603 26.9947 7.92603C28.0664 7.92603 28.9352 8.79481 28.9352 9.86652Z" fill="#14489B"/>
<path d="M28.159 7.53824C28.159 7.75259 27.9853 7.92634 27.7709 7.92634C27.5566 7.92634 27.3828 7.75259 27.3828 7.53824C27.3828 7.3239 27.5566 7.15015 27.7709 7.15015C27.9853 7.15015 28.159 7.3239 28.159 7.53824Z" fill="#14489B"/>
<path d="M50.3778 9.86652C50.3778 10.9382 49.509 11.807 48.4373 11.807C47.3656 11.807 46.4968 10.9382 46.4968 9.86652C46.4968 8.79481 47.3656 7.92603 48.4373 7.92603C49.509 7.92603 50.3778 8.79481 50.3778 9.86652Z" fill="#14489B"/>
<path d="M49.6016 7.53824C49.6016 7.75259 49.4279 7.92634 49.2135 7.92634C48.9992 7.92634 48.8254 7.75259 48.8254 7.53824C48.8254 7.3239 48.9992 7.15015 49.2135 7.15015C49.4279 7.15015 49.6016 7.3239 49.6016 7.53824Z" fill="#14489B"/>
</g>
<defs>
<filter id="filter0_d_17_2553" x="0" y="0" width="121.519" height="28" filterUnits="userSpaceOnUse" color-interpolation-filters="sRGB">
<feFlood flood-opacity="0" result="BackgroundImageFix"/>
<feColorMatrix in="SourceAlpha" type="matrix" values="0 0 0 0 0 0 0 0 0 0 0 0 0 0 0 0 0 0 127 0" result="hardAlpha"/>
<feOffset dy="4"/>
<feGaussianBlur stdDeviation="2"/>
<feComposite in2="hardAlpha" operator="out"/>
<feColorMatrix type="matrix" values="0 0 0 0 0.775 0 0 0 0 0.754333 0 0 0 0 0.754333 0 0 0 0.25 0"/>
<feBlend mode="normal" in2="BackgroundImageFix" result="effect1_dropShadow_17_2553"/>
<feBlend mode="normal" in="SourceGraphic" in2="effect1_dropShadow_17_2553" result="shape"/>
</filter>
</defs>
</svg>
