<svg width="24" height="25" viewBox="0 0 24 25" fill="none" xmlns="http://www.w3.org/2000/svg">
<path d="M0 13.2812C-4.52747e-09 12.9735 0.0598446 12.6687 0.176117 12.3843C0.292389 12.1 0.462811 11.8416 0.677654 11.624C0.892497 11.4063 1.14755 11.2337 1.42826 11.1159C1.70896 10.9981 2.00982 10.9375 2.31366 10.9375C2.61749 10.9375 2.91835 10.9981 3.19905 11.1159C3.47976 11.2337 3.73481 11.4063 3.94966 11.624C4.1645 11.8416 4.33492 12.1 4.45119 12.3843C4.56747 12.6687 4.62731 12.9735 4.62731 13.2812V22.6562C4.62731 23.2779 4.38355 23.874 3.94966 24.3135C3.51576 24.7531 2.92728 25 2.31366 25C1.70004 25 1.11155 24.7531 0.677654 24.3135C0.24376 23.874 9.14364e-09 23.2779 0 22.6562V13.2812ZM6.16975 13.0203V21.5047C6.16948 22.0854 6.32896 22.6547 6.63029 23.1488C6.93162 23.6428 7.36288 24.042 7.87568 24.3016L7.95281 24.3406C8.80868 24.774 9.75232 24.9997 10.7091 25H19.063C19.7764 25.0003 20.4679 24.7501 21.0196 24.292C21.5714 23.8339 21.9494 23.1962 22.0892 22.4875L23.9402 13.1125C24.0296 12.6592 24.0187 12.1914 23.9081 11.7429C23.7975 11.2944 23.5901 10.8763 23.3008 10.5188C23.0114 10.1613 22.6474 9.87323 22.2349 9.67545C21.8225 9.47766 21.3718 9.37505 20.9154 9.375H15.4244V3.125C15.4244 2.2962 15.0994 1.50134 14.5208 0.915291C13.9423 0.32924 13.1577 0 12.3395 0C11.9304 0 11.5381 0.16462 11.2488 0.457646C10.9596 0.750671 10.7971 1.1481 10.7971 1.5625V2.60469C10.7971 3.957 10.3641 5.27284 9.56311 6.35469L7.4037 9.27031C6.60273 10.3522 6.16975 11.668 6.16975 13.0203Z" fill="#D0D0D0"/>
</svg>
