<svg width="18" height="24" viewBox="0 0 18 24" fill="none" xmlns="http://www.w3.org/2000/svg">
<path fill-rule="evenodd" clip-rule="evenodd" d="M13.092 9.7125C13.17 9.315 13.197 8.9115 13.173 8.5035C13.1259 7.84295 12.9592 7.19646 12.681 6.5955C12.0435 5.175 10.7865 3.684 8.844 2.088C8.625 1.908 8.397 1.7265 8.1615 1.5435C7.45904 1.00419 6.73811 0.48938 6 0C6.0016 1.11929 5.83163 2.23221 5.496 3.3C4.8675 5.319 3.7455 7.008 2.679 8.6145C1.293 10.6995 0 12.645 0 15C3.55683e-08 17.3869 0.948211 19.6761 2.63604 21.364C4.32387 23.0518 6.61305 24 9 24C11.3869 24 13.6761 23.0518 15.364 21.364C17.0518 19.6761 18 17.3869 18 15C18 14.1105 17.8605 13.2375 17.61 12.3885C17.5124 12.0564 17.3993 11.729 17.271 11.4075C16.9687 10.6588 16.6013 9.93801 16.173 9.2535C16.016 8.99898 15.8519 8.74888 15.681 8.5035C15.681 8.895 15.6255 9.2805 15.5235 9.657C15.4485 9.93 15.3495 10.197 15.231 10.4595C15.096 10.752 14.937 11.037 14.7555 11.31C14.6007 11.5442 14.4329 11.7695 14.253 11.985C13.9397 12.3611 13.5955 12.7103 13.224 13.029C12.6732 13.5043 12.0715 13.9173 11.43 14.2605C11.425 14.263 11.42 14.2655 11.415 14.268C11.3273 14.3145 11.2388 14.3595 11.1495 14.403C10.5015 14.718 10.2045 14.049 10.722 13.548L10.731 13.539C11.0841 13.2015 11.4149 12.8412 11.721 12.4605C11.8787 12.2645 12.0278 12.0618 12.168 11.853L12.1845 11.826C12.4215 11.469 12.6165 11.1105 12.7695 10.749C12.9124 10.4161 13.0205 10.0677 13.092 9.7125ZM9.165 11.922C9.6525 11.4495 10.023 11.01 10.2945 10.602C10.806 9.837 10.9605 9.207 10.9245 8.6415C10.894 8.25151 10.7928 7.87032 10.626 7.5165C10.206 6.582 9.303 5.4135 7.6305 4.0065C6.9045 6.3195 5.6385 8.223 4.611 9.7695L4.551 9.8595C3.084 12.069 2.25 13.4445 2.25 15C2.25 16.7902 2.96116 18.5071 4.22703 19.773C5.4929 21.0388 7.20979 21.75 9 21.75C10.7902 21.75 12.5071 21.0388 13.773 19.773C15.0388 18.5071 15.75 16.7902 15.75 15C15.75 14.607 15.7125 14.2125 15.6405 13.815C14.6398 14.8926 13.4502 15.7777 12.1305 16.4265L11.1495 14.4015L12.132 16.4265C11.5412 16.7231 10.8661 16.8063 10.221 16.662C9.84164 16.5736 9.48703 16.401 9.18348 16.1569C8.87993 15.9128 8.63522 15.6036 8.4675 15.252C7.83 13.917 8.4465 12.618 9.1575 11.931L9.1665 11.922H9.165Z" fill="#1D67DD"/>
</svg>
